<mxfile host="app.diagrams.net" modified="2023-11-30T05:03:59.909Z" agent="Mozilla/5.0 (Macintosh; Intel Mac OS X 10_15_7) AppleWebKit/537.36 (KHTML, like Gecko) Chrome/119.0.0.0 Safari/537.36" etag="BFQHwMiKm4EmrYIgs_S5" version="22.1.5" type="device" pages="2">
  <diagram name="Страница — 1" id="ZXai2wW7zhCe8vWg5RHw">
    <mxGraphModel dx="1703" dy="400" grid="1" gridSize="10" guides="1" tooltips="1" connect="1" arrows="1" fold="1" page="0" pageScale="1" pageWidth="827" pageHeight="1169" math="0" shadow="0">
      <root>
        <mxCell id="0" />
        <mxCell id="1" parent="0" />
        <mxCell id="_WuTBDA8tSQ4fsmbYL19-10" value="" style="swimlane;startSize=0;" parent="1" vertex="1">
          <mxGeometry x="250" y="400" width="290" height="360" as="geometry" />
        </mxCell>
        <mxCell id="_WuTBDA8tSQ4fsmbYL19-2" value="«interface»&lt;br&gt;&lt;b&gt;Repository&lt;/b&gt;" style="html=1;whiteSpace=wrap;" parent="_WuTBDA8tSQ4fsmbYL19-10" vertex="1">
          <mxGeometry x="95" y="20" width="110" height="50" as="geometry" />
        </mxCell>
        <mxCell id="_WuTBDA8tSQ4fsmbYL19-4" style="edgeStyle=orthogonalEdgeStyle;rounded=0;orthogonalLoop=1;jettySize=auto;html=1;exitX=0.5;exitY=0;exitDx=0;exitDy=0;" parent="_WuTBDA8tSQ4fsmbYL19-10" source="_WuTBDA8tSQ4fsmbYL19-3" target="_WuTBDA8tSQ4fsmbYL19-2" edge="1">
          <mxGeometry relative="1" as="geometry" />
        </mxCell>
        <mxCell id="_WuTBDA8tSQ4fsmbYL19-3" value="«interface»&lt;br&gt;&lt;b&gt;UseCase&lt;/b&gt;" style="html=1;whiteSpace=wrap;" parent="_WuTBDA8tSQ4fsmbYL19-10" vertex="1">
          <mxGeometry x="95" y="140" width="110" height="50" as="geometry" />
        </mxCell>
        <mxCell id="_WuTBDA8tSQ4fsmbYL19-9" style="edgeStyle=orthogonalEdgeStyle;rounded=0;orthogonalLoop=1;jettySize=auto;html=1;exitX=0.5;exitY=0;exitDx=0;exitDy=0;dashed=1;" parent="_WuTBDA8tSQ4fsmbYL19-10" source="_WuTBDA8tSQ4fsmbYL19-5" target="_WuTBDA8tSQ4fsmbYL19-3" edge="1">
          <mxGeometry relative="1" as="geometry" />
        </mxCell>
        <mxCell id="_WuTBDA8tSQ4fsmbYL19-5" value="CreateUseCase&lt;br&gt;" style="swimlane;fontStyle=1;align=center;verticalAlign=top;childLayout=stackLayout;horizontal=1;startSize=26;horizontalStack=0;resizeParent=1;resizeParentMax=0;resizeLast=0;collapsible=1;marginBottom=0;whiteSpace=wrap;html=1;" parent="_WuTBDA8tSQ4fsmbYL19-10" vertex="1">
          <mxGeometry x="70" y="270" width="160" height="34" as="geometry" />
        </mxCell>
        <mxCell id="_WuTBDA8tSQ4fsmbYL19-7" value="" style="line;strokeWidth=1;fillColor=none;align=left;verticalAlign=middle;spacingTop=-1;spacingLeft=3;spacingRight=3;rotatable=0;labelPosition=right;points=[];portConstraint=eastwest;strokeColor=inherit;" parent="_WuTBDA8tSQ4fsmbYL19-5" vertex="1">
          <mxGeometry y="26" width="160" height="8" as="geometry" />
        </mxCell>
        <mxCell id="_WuTBDA8tSQ4fsmbYL19-19" style="edgeStyle=orthogonalEdgeStyle;rounded=0;orthogonalLoop=1;jettySize=auto;html=1;exitX=1;exitY=0.5;exitDx=0;exitDy=0;" parent="1" source="_WuTBDA8tSQ4fsmbYL19-13" target="_WuTBDA8tSQ4fsmbYL19-3" edge="1">
          <mxGeometry relative="1" as="geometry" />
        </mxCell>
        <mxCell id="_WuTBDA8tSQ4fsmbYL19-13" value="CreateHandler" style="swimlane;fontStyle=1;align=center;verticalAlign=top;childLayout=stackLayout;horizontal=1;startSize=26;horizontalStack=0;resizeParent=1;resizeParentMax=0;resizeLast=0;collapsible=1;marginBottom=0;whiteSpace=wrap;html=1;" parent="1" vertex="1">
          <mxGeometry x="-60" y="548" width="160" height="34" as="geometry" />
        </mxCell>
        <mxCell id="_WuTBDA8tSQ4fsmbYL19-14" value="" style="line;strokeWidth=1;fillColor=none;align=left;verticalAlign=middle;spacingTop=-1;spacingLeft=3;spacingRight=3;rotatable=0;labelPosition=right;points=[];portConstraint=eastwest;strokeColor=inherit;" parent="_WuTBDA8tSQ4fsmbYL19-13" vertex="1">
          <mxGeometry y="26" width="160" height="8" as="geometry" />
        </mxCell>
        <mxCell id="_WuTBDA8tSQ4fsmbYL19-17" style="edgeStyle=orthogonalEdgeStyle;rounded=0;orthogonalLoop=1;jettySize=auto;html=1;exitX=1;exitY=0.5;exitDx=0;exitDy=0;dashed=1;" parent="1" source="_WuTBDA8tSQ4fsmbYL19-15" target="_WuTBDA8tSQ4fsmbYL19-2" edge="1">
          <mxGeometry relative="1" as="geometry" />
        </mxCell>
        <mxCell id="_WuTBDA8tSQ4fsmbYL19-15" value="EntityRepository" style="swimlane;fontStyle=1;align=center;verticalAlign=top;childLayout=stackLayout;horizontal=1;startSize=26;horizontalStack=0;resizeParent=1;resizeParentMax=0;resizeLast=0;collapsible=1;marginBottom=0;whiteSpace=wrap;html=1;" parent="1" vertex="1">
          <mxGeometry x="-60" y="428" width="160" height="34" as="geometry" />
        </mxCell>
        <mxCell id="_WuTBDA8tSQ4fsmbYL19-16" value="" style="line;strokeWidth=1;fillColor=none;align=left;verticalAlign=middle;spacingTop=-1;spacingLeft=3;spacingRight=3;rotatable=0;labelPosition=right;points=[];portConstraint=eastwest;strokeColor=inherit;" parent="_WuTBDA8tSQ4fsmbYL19-15" vertex="1">
          <mxGeometry y="26" width="160" height="8" as="geometry" />
        </mxCell>
      </root>
    </mxGraphModel>
  </diagram>
  <diagram id="rHmwlfqDaMWmeBzH4aTA" name="Страница — 2">
    <mxGraphModel dx="1303" dy="800" grid="1" gridSize="10" guides="1" tooltips="1" connect="1" arrows="1" fold="1" page="0" pageScale="1" pageWidth="827" pageHeight="1169" math="0" shadow="0">
      <root>
        <mxCell id="0" />
        <mxCell id="1" parent="0" />
        <mxCell id="a89UvS8gKxJuOYArpTpR-1" value="TestPlan" style="rounded=0;whiteSpace=wrap;html=1;" vertex="1" parent="1">
          <mxGeometry x="200" y="80" width="120" height="60" as="geometry" />
        </mxCell>
        <mxCell id="a89UvS8gKxJuOYArpTpR-5" style="edgeStyle=none;rounded=0;orthogonalLoop=1;jettySize=auto;html=1;endArrow=none;endFill=0;" edge="1" parent="1" source="a89UvS8gKxJuOYArpTpR-2" target="a89UvS8gKxJuOYArpTpR-1">
          <mxGeometry relative="1" as="geometry" />
        </mxCell>
        <mxCell id="a89UvS8gKxJuOYArpTpR-2" value="TestGin" style="rounded=1;whiteSpace=wrap;html=1;" vertex="1" parent="1">
          <mxGeometry x="40" y="240" width="120" height="60" as="geometry" />
        </mxCell>
        <mxCell id="a89UvS8gKxJuOYArpTpR-6" style="edgeStyle=none;rounded=0;orthogonalLoop=1;jettySize=auto;html=1;endArrow=none;endFill=0;" edge="1" parent="1" source="a89UvS8gKxJuOYArpTpR-3" target="a89UvS8gKxJuOYArpTpR-1">
          <mxGeometry relative="1" as="geometry" />
        </mxCell>
        <mxCell id="a89UvS8gKxJuOYArpTpR-3" value="TestGRPC" style="rounded=1;whiteSpace=wrap;html=1;" vertex="1" parent="1">
          <mxGeometry x="360" y="240" width="120" height="60" as="geometry" />
        </mxCell>
        <mxCell id="a89UvS8gKxJuOYArpTpR-7" style="edgeStyle=none;rounded=0;orthogonalLoop=1;jettySize=auto;html=1;endArrow=none;endFill=0;" edge="1" parent="1" source="a89UvS8gKxJuOYArpTpR-4" target="a89UvS8gKxJuOYArpTpR-2">
          <mxGeometry relative="1" as="geometry" />
        </mxCell>
        <mxCell id="a89UvS8gKxJuOYArpTpR-4" value="CreateEntity" style="ellipse;whiteSpace=wrap;html=1;" vertex="1" parent="1">
          <mxGeometry x="40" y="380" width="120" height="80" as="geometry" />
        </mxCell>
        <mxCell id="a89UvS8gKxJuOYArpTpR-9" style="edgeStyle=none;rounded=0;orthogonalLoop=1;jettySize=auto;html=1;endArrow=none;endFill=0;" edge="1" parent="1" source="a89UvS8gKxJuOYArpTpR-8" target="a89UvS8gKxJuOYArpTpR-3">
          <mxGeometry relative="1" as="geometry" />
        </mxCell>
        <mxCell id="a89UvS8gKxJuOYArpTpR-8" value="CreateEntity" style="ellipse;whiteSpace=wrap;html=1;" vertex="1" parent="1">
          <mxGeometry x="360" y="380" width="120" height="80" as="geometry" />
        </mxCell>
      </root>
    </mxGraphModel>
  </diagram>
</mxfile>
